<svg xmlns="http://www.w3.org/2000/svg" id="Layer_1" viewBox="0 0 608.4 178.7"><defs><style>      .st0 {        fill: #fff;      }      .st1 {        isolation: isolate;      }    </style></defs><g><path class="st0" d="M76.5,64.6l-15,25.5,15,25.5h30l15-25.5-15-25.5h-30Z"></path><path class="st0" d="M77.8-.3l-13.8,23.4,13.8,23.4h27.5l13.7-23.4L105.3-.3h-27.5Z"></path><path class="st0" d="M11.9,44.7l9.7,25.3,26.8,3.8,17.2-21.5-9.7-25.3-26.8-3.8s-17.2,21.5-17.2,21.5Z"></path><path class="st0" d="M6,124.2l25.8,8.2,19.7-18.6-6.1-26.8-25.8-8.2L0,97.4l6.1,26.8h0Z"></path><path class="st0" d="M64.4,178.4l22.5-15.1-2.2-27-24.8-12-22.5,15.1,2.2,27s24.8,12,24.8,12Z"></path><path class="st0" d="M143.3,166.6l2.3-27-22.5-15.1-24.8,11.9-2.3,27,22.5,15,24.8-11.8Z"></path><path class="st0" d="M183.2,97.6l-19.7-18.7-25.8,8.2-6.2,26.8,19.7,18.6,25.8-8.2s6.2-26.7,6.2-26.7Z"></path><path class="st0" d="M154.1,23.3l-26.8,3.8-9.7,25.3,17.1,21.5,26.9-3.8,9.7-25.3s-17.2-21.5-17.2-21.5Z"></path></g><g class="st1"><path class="st0" d="M210.4,53.4h16l23.8,37.7v-37.7h18v71.3h-15.8l-23.9-37.6v37.6h-18V53.4h-.1Z"></path><path class="st0" d="M305.5,100.6l-23.9-47.3h19l14,28.5c3.2-6.3,7.1-15.2,14.1-28.5h18.6l-23.8,47.3v24.1h-18v-24.1h0Z"></path><path class="st0" d="M359,53.4h26.7c21,0,26,11.9,26,21.4s-1.5,8.7-4.4,12.2c5.5,3.7,8.9,9.7,9,16.2,0,9.7-4,21.7-30.5,21.7h-26.7V53.4h-.1ZM377,81.5h7.4c7.8,0,9.1-4.1,9.1-6.7s-.7-7.1-8.1-7.1h-8.6v13.8s.2,0,.2,0ZM377,110.3h8.4c11.1-.2,12.6-3.3,12.6-7.3s-2.5-7.4-13.6-7.4h-7.4v14.6h0Z"></path><path class="st0" d="M429.6,53.4h26.7c21,0,26,11.9,26,21.4s-1.5,8.7-4.4,12.2c5.5,3.7,8.9,9.7,9,16.2,0,9.7-4,21.7-30.5,21.7h-26.8V53.4h0ZM447.6,81.5h7.4c7.8,0,9.1-4.1,9.1-6.7s-.7-7.1-8.1-7.1h-8.6v13.8s.2,0,.2,0ZM447.6,110.3h8.4c11.1-.2,12.6-3.3,12.6-7.3s-2.5-7.4-13.6-7.4h-7.4v14.6h0Z"></path><path class="st0" d="M500.3,53.4h18v56.7h26.9v14.7h-44.8V53.4h-.1Z"></path><path class="st0" d="M559.9,53.4h45.6v14.4h-27.6v14.9h23v14.4h-23v13.4h28.4v14.4h-46.4V53.4h0Z"></path></g><g class="st1"><path class="st0" d="M373.8,157.4l4.1-4.4c1.4,2.7,4.7,4,7.4,4s4-1,3.9-2.8c-.3-4.1-14.5-3.6-14.5-12.4s5.3-9.3,10.9-9.3,7.8,1.6,10.4,5l-4.1,4.4c-1.4-2.4-4-3.6-6.2-3.6s-3.8,1-3.8,3c0,4.1,14.6,3.4,14.6,12.6s-5.4,8.9-11.1,8.9-8.7-1.7-11.4-5.5h-.2Z"></path><path class="st0" d="M405.8,133.3h20.2v5.9h-12.7v5.7h9.4v5.9h-9.4v5.8h12.7v5.9h-20.2v-29.1h0Z"></path><path class="st0" d="M434.6,147.8c0-7.6,4.9-15.3,15.3-15.3s6.8,1.2,9.2,3.5l-3.2,4.6c-1.7-1.7-3.8-2.3-5.4-2.3s-.4,0-.6,0c-5.5.5-7.8,4.8-7.8,9.4s2.4,9.2,8.2,9.2,3.9-.6,5.3-2l3.4,4c-2.5,2.3-5.6,3.8-9.2,3.8-10.4,0-15.2-7.5-15.2-15h0Z"></path><path class="st0" d="M468.5,152.9v-19.6h7.5v18.6c0,3.4,2.2,4.8,4.3,4.8s4.4-1.5,4.4-4.8v-18.6h7.5v19.6c0,6.7-5.9,10-11.8,10s-11.9-3.4-11.9-10Z"></path><path class="st0" d="M502.8,133.3h11.3c6,0,10.9,4.4,10.9,9.6s-3.2,7.9-7.6,9.2l7.3,10.3h-7.7l-6.7-9.8v9.8h-7.5v-29.1h0ZM514.4,146.7c1.9,0,3.4-2,3.4-3.8s-1.5-3.7-3.4-3.7h-4.2v7.5h4.2Z"></path><path class="st0" d="M534.8,133.3h7.5v29.1h-7.5v-29.1Z"></path><path class="st0" d="M558.8,139.2h-7.6v-5.9h22.7v5.9h-7.6v23.2h-7.5v-23.2h0Z"></path><path class="st0" d="M590.2,152.8l-8.7-19.5h7.4l5,12.1,5-12.1h7.4l-8.7,19.6v9.6h-7.5v-9.6h0Z"></path></g></svg>